<svg xmlns="http://www.w3.org/2000/svg" viewBox="0 0 82.51 24.15"><defs><style>.cls-1{fill:none;stroke:#231f20;stroke-miterlimit:10;stroke-width:0.5px;}.cls-2,.cls-4{fill:#231f20;}.cls-3{fill:#fff;}.cls-4{font-size:9px;font-family:AauxNext-Bold, Aaux Next;font-weight:700;}</style></defs><g id="Layer_2" data-name="Layer 2"><g id="Layer_1-2" data-name="Layer 1"><path class="cls-1" d="M4.37,11.9H1.51A1.26,1.26,0,0,1,.25,10.64V1.77A1.26,1.26,0,0,1,1.51.51h16a1.26,1.26,0,0,1,1.26,1.26V4.48"/><path class="cls-1" d="M8.49,15.87H5.63a1.25,1.25,0,0,1-1.26-1.25V5.74A1.26,1.26,0,0,1,5.63,4.48h16a1.27,1.27,0,0,1,1.26,1.26V8.46"/><path class="cls-1" d="M12.6,19.85H9.74a1.26,1.26,0,0,1-1.25-1.26V9.71A1.25,1.25,0,0,1,9.74,8.46h16A1.25,1.25,0,0,1,27,9.71v2.72"/><rect class="cls-1" x="16.18" y="8.86" width="11.39" height="18.54" rx="1.26" transform="translate(40 -3.75) rotate(90)"/><path class="cls-2" d="M31.3,7.87,30.46,7a4.13,4.13,0,0,1-1.26-3A4,4,0,0,1,33.29,0a4.52,4.52,0,0,1,2.22.52l1.07,1.1V3.47a4.12,4.12,0,0,0-2.12-.74A2.1,2.1,0,0,0,32.15,4.9,1.69,1.69,0,0,0,32.48,6a2.81,2.81,0,0,0,1.08.2,3.88,3.88,0,0,0,1.87-.49L36.58,6.9V8.7a5.43,5.43,0,0,1-2.2.41A4.18,4.18,0,0,1,31.3,7.87Z"/><path class="cls-3" d="M35.31,7.51V6a3.86,3.86,0,0,1-1.75.42A2.38,2.38,0,0,1,31,4,2.3,2.3,0,0,1,33.5,1.62a3.78,3.78,0,0,1,1.81.45V.63a4.51,4.51,0,0,0-2-.44,3.81,3.81,0,0,0-3.9,3.87,3.79,3.79,0,0,0,3.9,3.84A5,5,0,0,0,35.31,7.51Z"/><path class="cls-2" d="M39.22,8.17l-.91-.91a3.66,3.66,0,0,1-.94-2.69V.15h1.84L40.4,1.28V5.55a2.83,2.83,0,0,0,.09.74l.27,0c1,0,1.49-.65,1.49-1.84V.15h1.84l1.14,1.14V5.43a3.59,3.59,0,0,1-6,2.74Z"/><path class="cls-3" d="M44,4.57V.35H42.45V4.47c0,1.29-.62,2-1.69,2s-1.68-.81-1.68-2V.35H37.56V4.57c0,2.15,1.11,3.33,3.19,3.33S44,6.75,44,4.57Z"/><polygon class="cls-2" points="46.32 7.85 46.32 0.15 48.16 0.15 49.35 1.28 49.35 6.1 51.44 6.1 52.57 7.24 52.57 8.98 47.46 8.98 46.32 7.85"/><polygon class="cls-3" points="51.3 7.71 51.3 6.3 48.03 6.3 48.03 0.35 46.52 0.35 46.52 7.71 51.3 7.71"/><polygon class="cls-2" points="53.41 7.85 53.41 3.02 52.51 3.02 51.38 1.89 51.38 0.15 57.28 0.15 58.41 1.28 58.41 3.02 56.44 3.02 56.44 8.98 54.54 8.98 53.41 7.85"/><polygon class="cls-3" points="55.11 7.71 55.11 1.75 57.15 1.75 57.15 0.35 51.57 0.35 51.57 1.75 53.6 1.75 53.6 7.71 55.11 7.71"/><path class="cls-2" d="M60.93,8.17,60,7.26a3.66,3.66,0,0,1-.94-2.69V.15h1.85L62.1,1.28V5.55a2.83,2.83,0,0,0,.09.74l.27,0c1,0,1.5-.65,1.5-1.84V.15H65.8l1.13,1.14V5.43a3.39,3.39,0,0,1-3.44,3.68A3.34,3.34,0,0,1,60.93,8.17Z"/><path class="cls-3" d="M65.66,4.57V.35H64.15V4.47c0,1.29-.62,2-1.69,2s-1.68-.81-1.68-2V.35H59.27V4.57c0,2.15,1.1,3.33,3.18,3.33S65.66,6.75,65.66,4.57Z"/><path class="cls-2" d="M68,7.85V.15h3.06a3.16,3.16,0,0,1,2.27.91l.84.84a2.54,2.54,0,0,1,.88,1.94,2.38,2.38,0,0,1-1,1.92L75.93,9H73.76L72,7.89l-.77-1.51H71V9H69.24Z"/><path class="cls-3" d="M69.71,7.71V5.27h1.17l1.24,2.44h1.8L72.42,5a2.58,2.58,0,0,0,1.38-2.2A2.5,2.5,0,0,0,71.08.35H68.22V7.71Z"/><path class="cls-2" d="M69.71,1.7H71.1a1.16,1.16,0,0,1,1.19,1.17,1.18,1.18,0,0,1-1.23,1.18H69.71Z"/><path class="cls-3" d="M71.06,3.86a1,1,0,0,0,1-1,.28.28,0,0,0,0-.09H70.82V3.86Z"/><polygon class="cls-2" points="76 7.85 76 0.15 81.12 0.15 82.26 1.28 82.26 2.65 78.9 2.65 78.9 3.08 80.62 3.08 81.75 4.21 81.75 5.67 78.9 5.67 78.9 6.16 81.28 6.16 82.41 7.29 82.41 8.98 77.13 8.98 76 7.85"/><polygon class="cls-3" points="81.14 7.71 81.14 6.35 77.68 6.35 77.68 4.66 80.48 4.66 80.48 3.27 77.68 3.27 77.68 1.69 80.99 1.69 80.99 0.35 76.19 0.35 76.19 7.71 81.14 7.71"/><path class="cls-2" d="M44.86,22.26,44,21.42a4.13,4.13,0,0,1-1.26-3,4,4,0,0,1,4.09-4.06,4.49,4.49,0,0,1,2.22.52L50.14,16v1.86A4.11,4.11,0,0,0,48,17.13a2.1,2.1,0,0,0-2.32,2.17A1.69,1.69,0,0,0,46,20.44a2.85,2.85,0,0,0,1.08.2A3.78,3.78,0,0,0,49,20.15l1.15,1.15v1.8a5.43,5.43,0,0,1-2.2.41A4.15,4.15,0,0,1,44.86,22.26Z"/><path class="cls-3" d="M48.87,21.91V20.42a3.83,3.83,0,0,1-1.75.42,2.38,2.38,0,0,1-2.57-2.43A2.3,2.3,0,0,1,47.06,16a3.78,3.78,0,0,1,1.81.45V15a4.48,4.48,0,0,0-2-.44,3.86,3.86,0,1,0,0,7.71A5,5,0,0,0,48.87,21.91Z"/><polygon class="cls-2" points="50.49 22.23 53.34 14.55 55.51 14.55 56.96 15.66 59.83 23.38 57.69 23.38 56.36 22.27 56.22 21.87 53.82 21.87 53.3 23.38 51.52 23.38 50.49 22.23"/><polygon class="cls-3" points="52.35 22.11 52.88 20.6 55.99 20.6 56.51 22.11 58.15 22.11 55.41 14.75 53.48 14.75 50.74 22.11 52.35 22.11"/><polygon class="cls-2" points="54.44 16.1 55.63 19.31 53.24 19.31 54.44 16.1"/><polygon class="cls-3" points="55.34 19.12 55 18.2 54.67 19.12 55.34 19.12"/><path class="cls-2" d="M59.9,22.25v-7.7H63a3.16,3.16,0,0,1,2.27.91l.84.84A2.54,2.54,0,0,1,67,18.24a2.4,2.4,0,0,1-1,1.92l1.91,3.22H65.64l-1.76-1.09-.77-1.51h-.2v2.6H61.12Z"/><path class="cls-3" d="M61.59,22.11V19.67h1.17L64,22.11H65.8l-1.5-2.76a2.56,2.56,0,0,0,1.38-2.2A2.5,2.5,0,0,0,63,14.75H60.1v7.36Z"/><path class="cls-2" d="M61.59,16.1H63a1.16,1.16,0,0,1,1.19,1.17,1.18,1.18,0,0,1-1.23,1.18H61.59Z"/><path class="cls-3" d="M62.94,18.26a1,1,0,0,0,1-1,.28.28,0,0,0,0-.09H62.7v1.08Z"/><path class="cls-2" d="M67.88,22.25v-7.7h2.64a4.25,4.25,0,0,1,3.06,1.24l.91.91a3.81,3.81,0,0,1,1.1,2.82,3.77,3.77,0,0,1-4,3.86H69Z"/><path class="cls-3" d="M70.52,22.11a3.68,3.68,0,1,0,0-7.36H68.07v7.36Z"/><path class="cls-2" d="M69.58,16.19h1a2.14,2.14,0,0,1,2.3,2.25,2.16,2.16,0,0,1-2.33,2.28h-.94Z"/><path class="cls-3" d="M72.65,18.44a2.53,2.53,0,0,0-.16-.9,2.35,2.35,0,0,0-1-.17h-.59v3.14A1.92,1.92,0,0,0,72.65,18.44Z"/><path class="cls-2" d="M77.08,23,76,21.84v-2a4.4,4.4,0,0,0,2.33.73,2.08,2.08,0,0,0,1-.21l-.84-.3a3.42,3.42,0,0,1-1.66-1.29l-.47-.55a1.9,1.9,0,0,1-.45-1.31c0-1.49,1.21-2.52,3-2.52a5.3,5.3,0,0,1,2.15.46L82.11,16v1.91A4.57,4.57,0,0,0,80,17.18a1.67,1.67,0,0,0-1.06.3,4.89,4.89,0,0,1,2.19,1.1l.75.77A2.19,2.19,0,0,1,82.51,21c0,1.5-1.23,2.55-3,2.55A5.17,5.17,0,0,1,77.08,23Z"/><path class="cls-3" d="M81.35,19.89a1.75,1.75,0,0,0-.47-1.24,5.93,5.93,0,0,0-2.44-1.11c-.44-.14-.85-.35-.85-.73S78.18,16,79,16a4.11,4.11,0,0,1,1.81.5V15a5.32,5.32,0,0,0-2-.4c-1.63,0-2.75,1-2.75,2.32,0,2.45,3.68,1.88,3.68,3.09,0,.46-.6.76-1.47.76a4.1,4.1,0,0,1-2.15-.62v1.56a5.41,5.41,0,0,0,2.42.51C80.21,22.24,81.35,21.28,81.35,19.89Z"/><text class="cls-4" transform="translate(19.47 21.27)">?</text><text class="cls-4" transform="translate(19.47 21.27)">?</text></g></g></svg>